<svg width="32" height="32" viewBox="0 0 32 32" fill="none" xmlns="http://www.w3.org/2000/svg">
<g clip-path="url(#clip0_187_16)">
<path d="M4.68796 27.3121C3.15979 25.8361 1.94088 24.0706 1.10233 22.1186C0.26379 20.1665 -0.17759 18.067 -0.196051 15.9425C-0.214512 13.818 0.190315 11.7112 0.994809 9.74481C1.7993 7.77847 2.98735 5.99204 4.48964 4.48976C5.99192 2.98748 7.77835 1.79943 9.74469 0.994931C11.711 0.190437 13.8179 -0.21439 15.9424 -0.195929C18.0668 -0.177468 20.1664 0.263912 22.1184 1.10246C24.0705 1.941 25.836 3.15992 27.312 4.68808C30.2265 7.70571 31.8392 11.7473 31.8027 15.9425C31.7663 20.1376 30.0836 24.1506 27.1171 27.1172C24.1505 30.0837 20.1375 31.7664 15.9424 31.8029C11.7472 31.8393 7.70559 30.2266 4.68796 27.3121ZM18.24 16.0001L22.768 11.4721L20.512 9.21608L16 13.7441L11.472 9.21608L9.21596 11.4721L13.744 16.0001L9.21596 20.5281L11.472 22.7841L16 18.2561L20.528 22.7841L22.784 20.5281L18.256 16.0001H18.24Z" fill="black"/>
</g>
<defs>
<clipPath id="clip0_187_16">
<rect width="32" height="32" fill="white"/>
</clipPath>
</defs>
</svg>
