<svg width="371" height="300" viewBox="0 0 371 300" fill="none" xmlns="http://www.w3.org/2000/svg">
<path d="M44.6 86L21.7 16H38.5L58.4 78H50L70.8 16H85.8L105.8 78H97.7L118.1 16H133.6L110.7 86H93.3L75.6 31.6H80.2L62 86H44.6ZM157.544 44.2H191.244V56.8H157.544V44.2ZM158.744 73H196.844V86H142.644V16H195.544V29H158.744V73ZM224.634 44.2H258.334V56.8H224.634V44.2ZM225.834 73H263.934V86H209.734V16H262.634V29H225.834V73ZM276.823 86V16H308.623C316.223 16 322.923 17.4667 328.723 20.4C334.523 23.2667 339.057 27.3 342.323 32.5C345.59 37.7 347.223 43.8667 347.223 51C347.223 58.0667 345.59 64.2333 342.323 69.5C339.057 74.7 334.523 78.7667 328.723 81.7C322.923 84.5667 316.223 86 308.623 86H276.823ZM293.023 72.7H307.823C312.49 72.7 316.523 71.8333 319.923 70.1C323.39 68.3 326.057 65.7667 327.923 62.5C329.857 59.2333 330.823 55.4 330.823 51C330.823 46.5333 329.857 42.7 327.923 39.5C326.057 36.2333 323.39 33.7333 319.923 32C316.523 30.2 312.49 29.3 307.823 29.3H293.023V72.7Z" fill="#355546"/>
<path d="M16.3 186V116H29.7L59.5 165.4H52.4L81.7 116H95L95.2 186H80L79.9 139.3H82.7L59.3 178.6H52L28.1 139.3H31.5V186H16.3ZM126.708 144.2H160.408V156.8H126.708V144.2ZM127.908 173H166.008V186H111.808V116H164.708V129H127.908V173ZM193.798 144.2H227.498V156.8H193.798V144.2ZM194.998 173H233.098V186H178.898V116H231.798V129H194.998V173ZM260.488 186V129.2H238.088V116H299.088V129.2H276.688V186H260.488ZM330.316 187.2C324.716 187.2 319.349 186.467 314.216 185C309.082 183.467 304.949 181.5 301.816 179.1L307.316 166.9C310.316 169.033 313.849 170.8 317.916 172.2C322.049 173.533 326.216 174.2 330.416 174.2C333.616 174.2 336.182 173.9 338.116 173.3C340.116 172.633 341.582 171.733 342.516 170.6C343.449 169.467 343.916 168.167 343.916 166.7C343.916 164.833 343.182 163.367 341.716 162.3C340.249 161.167 338.316 160.267 335.916 159.6C333.516 158.867 330.849 158.2 327.916 157.6C325.049 156.933 322.149 156.133 319.216 155.2C316.349 154.267 313.716 153.067 311.316 151.6C308.916 150.133 306.949 148.2 305.416 145.8C303.949 143.4 303.216 140.333 303.216 136.6C303.216 132.6 304.282 128.967 306.416 125.7C308.616 122.367 311.882 119.733 316.216 117.8C320.616 115.8 326.116 114.8 332.716 114.8C337.116 114.8 341.449 115.333 345.716 116.4C349.982 117.4 353.749 118.933 357.016 121L352.016 133.3C348.749 131.433 345.482 130.067 342.216 129.2C338.949 128.267 335.749 127.8 332.616 127.8C329.482 127.8 326.916 128.167 324.916 128.9C322.916 129.633 321.482 130.6 320.616 131.8C319.749 132.933 319.316 134.267 319.316 135.8C319.316 137.6 320.049 139.067 321.516 140.2C322.982 141.267 324.916 142.133 327.316 142.8C329.716 143.467 332.349 144.133 335.216 144.8C338.149 145.467 341.049 146.233 343.916 147.1C346.849 147.967 349.516 149.133 351.916 150.6C354.316 152.067 356.249 154 357.716 156.4C359.249 158.8 360.016 161.833 360.016 165.5C360.016 169.433 358.916 173.033 356.716 176.3C354.516 179.567 351.216 182.2 346.816 184.2C342.482 186.2 336.982 187.2 330.316 187.2Z" fill="#355546"/>
<path d="M52.3 287.2C46.9 287.2 41.8667 286.333 37.2 284.6C32.6 282.8 28.6 280.267 25.2 277C21.8 273.733 19.1333 269.9 17.2 265.5C15.3333 261.1 14.4 256.267 14.4 251C14.4 245.733 15.3333 240.9 17.2 236.5C19.1333 232.1 21.8 228.267 25.2 225C28.6667 221.733 32.7 219.233 37.3 217.5C41.9 215.7 46.9333 214.8 52.4 214.8C58.4667 214.8 63.9333 215.867 68.8 218C73.7333 220.067 77.8667 223.133 81.2 227.2L70.8 236.8C68.4 234.067 65.7333 232.033 62.8 230.7C59.8667 229.3 56.6667 228.6 53.2 228.6C49.9333 228.6 46.9333 229.133 44.2 230.2C41.4667 231.267 39.1 232.8 37.1 234.8C35.1 236.8 33.5333 239.167 32.4 241.9C31.3333 244.633 30.8 247.667 30.8 251C30.8 254.333 31.3333 257.367 32.4 260.1C33.5333 262.833 35.1 265.2 37.1 267.2C39.1 269.2 41.4667 270.733 44.2 271.8C46.9333 272.867 49.9333 273.4 53.2 273.4C56.6667 273.4 59.8667 272.733 62.8 271.4C65.7333 270 68.4 267.9 70.8 265.1L81.2 274.7C77.8667 278.767 73.7333 281.867 68.8 284C63.9333 286.133 58.4333 287.2 52.3 287.2ZM92.1398 286V216H122.44C128.707 216 134.107 217.033 138.64 219.1C143.173 221.1 146.673 224 149.14 227.8C151.607 231.6 152.84 236.133 152.84 241.4C152.84 246.6 151.607 251.1 149.14 254.9C146.673 258.633 143.173 261.5 138.64 263.5C134.107 265.5 128.707 266.5 122.44 266.5H101.14L108.34 259.4V286H92.1398ZM136.64 286L119.14 260.6H136.44L154.14 286H136.64ZM108.34 261.2L101.14 253.6H121.54C126.54 253.6 130.273 252.533 132.74 250.4C135.207 248.2 136.44 245.2 136.44 241.4C136.44 237.533 135.207 234.533 132.74 232.4C130.273 230.267 126.54 229.2 121.54 229.2H101.14L108.34 221.5V261.2ZM156.475 286L187.675 216H203.675L234.975 286H217.975L192.375 224.2H198.775L173.075 286H156.475ZM172.075 271L176.375 258.7H212.375L216.775 271H172.075ZM257.238 247.5H290.838V260.5H257.238V247.5ZM258.438 286H242.238V216H295.138V229H258.438V286ZM321.093 286V229.2H298.693V216H359.693V229.2H337.293V286H321.093Z" fill="#355546"/>
</svg>
