<svg width="22" height="33" viewBox="0 0 22 33" fill="none" xmlns="http://www.w3.org/2000/svg">
<g clip-path="url(#clip0_129_60)">
<path d="M16.5 11C16.5 9.48177 15.9629 8.18555 14.8887 7.11133C13.8145 6.03711 12.5182 5.5 11 5.5C9.48177 5.5 8.18555 6.03711 7.11133 7.11133C6.03711 8.18555 5.5 9.48177 5.5 11C5.5 12.5182 6.03711 13.8145 7.11133 14.8887C8.18555 15.9629 9.48177 16.5 11 16.5C12.5182 16.5 13.8145 15.9629 14.8887 14.8887C15.9629 13.8145 16.5 12.5182 16.5 11ZM22 11C22 12.5612 21.7637 13.8431 21.291 14.8457L13.4707 31.4746C13.2415 31.9473 12.9014 32.3197 12.4502 32.5918C11.999 32.8639 11.5156 33 11 33C10.4844 33 10.001 32.8639 9.5498 32.5918C9.09863 32.3197 8.76562 31.9473 8.55078 31.4746L0.708984 14.8457C0.236328 13.8431 0 12.5612 0 11C0 7.96354 1.07422 5.37109 3.22266 3.22266C5.37109 1.07422 7.96354 0 11 0C14.0365 0 16.6289 1.07422 18.7773 3.22266C20.9258 5.37109 22 7.96354 22 11Z" fill="#11261C"/>
</g>
<defs>
<clipPath id="clip0_129_60">
<rect width="22" height="33" fill="white"/>
</clipPath>
</defs>
</svg>
