<svg width="355" height="316" viewBox="0 0 355 316" fill="none" xmlns="http://www.w3.org/2000/svg">
<path d="M25.1 86L2.2 16H19L38.9 78H30.5L51.3 16H66.3L86.3 78H78.2L98.6 16H114.1L91.2 86H73.8L56.1 31.6H60.7L42.5 86H25.1ZM138.044 44.2H171.744V56.8H138.044V44.2ZM139.244 73H177.344V86H123.144V16H176.044V29H139.244V73ZM205.134 44.2H238.834V56.8H205.134V44.2ZM206.334 73H244.434V86H190.234V16H243.134V29H206.334V73ZM257.323 86V16H289.123C296.723 16 303.423 17.4667 309.223 20.4C315.023 23.2667 319.557 27.3 322.823 32.5C326.09 37.7 327.723 43.8667 327.723 51C327.723 58.0667 326.09 64.2333 322.823 69.5C319.557 74.7 315.023 78.7667 309.223 81.7C303.423 84.5667 296.723 86 289.123 86H257.323ZM273.523 72.7H288.323C292.99 72.7 297.023 71.8333 300.423 70.1C303.89 68.3 306.557 65.7667 308.423 62.5C310.357 59.2333 311.323 55.4 311.323 51C311.323 46.5333 310.357 42.7 308.423 39.5C306.557 36.2333 303.89 33.7333 300.423 32C297.023 30.2 292.99 29.3 288.323 29.3H273.523V72.7Z" fill="#11261C"/>
<path d="M8.3 194V124H21.7L51.5 173.4H44.4L73.7 124H87L87.2 194H72L71.9 147.3H74.7L51.3 186.6H44L20.1 147.3H23.5V194H8.3ZM118.708 152.2H152.408V164.8H118.708V152.2ZM119.908 181H158.008V194H103.808V124H156.708V137H119.908V181ZM185.798 152.2H219.498V164.8H185.798V152.2ZM186.998 181H225.098V194H170.898V124H223.798V137H186.998V181ZM252.488 194V137.2H230.088V124H291.088V137.2H268.688V194H252.488ZM322.316 195.2C316.716 195.2 311.349 194.467 306.216 193C301.082 191.467 296.949 189.5 293.816 187.1L299.316 174.9C302.316 177.033 305.849 178.8 309.916 180.2C314.049 181.533 318.216 182.2 322.416 182.2C325.616 182.2 328.182 181.9 330.116 181.3C332.116 180.633 333.582 179.733 334.516 178.6C335.449 177.467 335.916 176.167 335.916 174.7C335.916 172.833 335.182 171.367 333.716 170.3C332.249 169.167 330.316 168.267 327.916 167.6C325.516 166.867 322.849 166.2 319.916 165.6C317.049 164.933 314.149 164.133 311.216 163.2C308.349 162.267 305.716 161.067 303.316 159.6C300.916 158.133 298.949 156.2 297.416 153.8C295.949 151.4 295.216 148.333 295.216 144.6C295.216 140.6 296.282 136.967 298.416 133.7C300.616 130.367 303.882 127.733 308.216 125.8C312.616 123.8 318.116 122.8 324.716 122.8C329.116 122.8 333.449 123.333 337.716 124.4C341.982 125.4 345.749 126.933 349.016 129L344.016 141.3C340.749 139.433 337.482 138.067 334.216 137.2C330.949 136.267 327.749 135.8 324.616 135.8C321.482 135.8 318.916 136.167 316.916 136.9C314.916 137.633 313.482 138.6 312.616 139.8C311.749 140.933 311.316 142.267 311.316 143.8C311.316 145.6 312.049 147.067 313.516 148.2C314.982 149.267 316.916 150.133 319.316 150.8C321.716 151.467 324.349 152.133 327.216 152.8C330.149 153.467 333.049 154.233 335.916 155.1C338.849 155.967 341.516 157.133 343.916 158.6C346.316 160.067 348.249 162 349.716 164.4C351.249 166.8 352.016 169.833 352.016 173.5C352.016 177.433 350.916 181.033 348.716 184.3C346.516 187.567 343.216 190.2 338.816 192.2C334.482 194.2 328.982 195.2 322.316 195.2Z" fill="#11261C"/>
<path d="M41.8 303.2C36.4 303.2 31.3667 302.333 26.7 300.6C22.1 298.8 18.1 296.267 14.7 293C11.3 289.733 8.63333 285.9 6.7 281.5C4.83333 277.1 3.9 272.267 3.9 267C3.9 261.733 4.83333 256.9 6.7 252.5C8.63333 248.1 11.3 244.267 14.7 241C18.1667 237.733 22.2 235.233 26.8 233.5C31.4 231.7 36.4333 230.8 41.9 230.8C47.9667 230.8 53.4333 231.867 58.3 234C63.2333 236.067 67.3667 239.133 70.7 243.2L60.3 252.8C57.9 250.067 55.2333 248.033 52.3 246.7C49.3667 245.3 46.1667 244.6 42.7 244.6C39.4333 244.6 36.4333 245.133 33.7 246.2C30.9667 247.267 28.6 248.8 26.6 250.8C24.6 252.8 23.0333 255.167 21.9 257.9C20.8333 260.633 20.3 263.667 20.3 267C20.3 270.333 20.8333 273.367 21.9 276.1C23.0333 278.833 24.6 281.2 26.6 283.2C28.6 285.2 30.9667 286.733 33.7 287.8C36.4333 288.867 39.4333 289.4 42.7 289.4C46.1667 289.4 49.3667 288.733 52.3 287.4C55.2333 286 57.9 283.9 60.3 281.1L70.7 290.7C67.3667 294.767 63.2333 297.867 58.3 300C53.4333 302.133 47.9333 303.2 41.8 303.2ZM81.6398 302V232H111.94C118.207 232 123.607 233.033 128.14 235.1C132.673 237.1 136.173 240 138.64 243.8C141.107 247.6 142.34 252.133 142.34 257.4C142.34 262.6 141.107 267.1 138.64 270.9C136.173 274.633 132.673 277.5 128.14 279.5C123.607 281.5 118.207 282.5 111.94 282.5H90.6398L97.8398 275.4V302H81.6398ZM126.14 302L108.64 276.6H125.94L143.64 302H126.14ZM97.8398 277.2L90.6398 269.6H111.04C116.04 269.6 119.773 268.533 122.24 266.4C124.707 264.2 125.94 261.2 125.94 257.4C125.94 253.533 124.707 250.533 122.24 248.4C119.773 246.267 116.04 245.2 111.04 245.2H90.6398L97.8398 237.5V277.2ZM145.975 302L177.175 232H193.175L224.475 302H207.475L181.875 240.2H188.275L162.575 302H145.975ZM161.575 287L165.875 274.7H201.875L206.275 287H161.575ZM246.738 263.5H280.338V276.5H246.738V263.5ZM247.938 302H231.738V232H284.638V245H247.938V302ZM310.593 302V245.2H288.193V232H349.193V245.2H326.793V302H310.593Z" fill="#11261C"/>
</svg>
